<?xml version="1.0" standalone="no"?>
<!DOCTYPE svg PUBLIC "-//W3C//DTD SVG 20010904//EN"
 "http://www.w3.org/TR/2001/REC-SVG-20010904/DTD/svg10.dtd">
<svg version="1.0" xmlns="http://www.w3.org/2000/svg"
 width="1000.000000pt" height="1000.000000pt" viewBox="0 0 1000.000000 1000.000000"
 preserveAspectRatio="xMidYMid meet">
<metadata>
Created by potrace 1.14, written by Peter Selinger 2001-2017
</metadata>
<g transform="translate(0.000000,1000.000000) scale(0.100000,-0.100000)"
fill="#000000" stroke="none">
<path d="M4600 9979 c-637 -55 -1231 -219 -1787 -493 -219 -108 -305 -156
-493 -276 -569 -362 -1066 -846 -1449 -1410 -480 -708 -758 -1491 -843 -2375
-18 -194 -15 -693 6 -903 142 -1426 850 -2680 2000 -3541 406 -304 930 -575
1421 -734 357 -116 713 -189 1120 -229 198 -19 712 -16 920 6 1030 107 1930
485 2725 1144 151 125 501 476 626 627 574 695 945 1500 1088 2362 48 284 58
405 63 746 7 417 -10 643 -73 997 -192 1073 -759 2086 -1579 2818 -827 739
-1846 1175 -2949 1262 -149 12 -656 11 -796 -1z m-66 -2460 c137 -24 295 -82
422 -158 l51 -30 59 36 c245 148 574 203 851 143 545 -119 957 -608 1022
-1212 7 -61 11 -446 11 -1033 l0 -935 -167 2 -168 3 -5 1000 -5 1000 -27 98
c-85 308 -279 553 -539 676 -133 64 -191 76 -364 76 -172 0 -231 -12 -363 -75
-104 -50 -161 -88 -241 -164 -147 -141 -241 -302 -304 -524 -21 -76 -22 -88
-27 -1082 l-5 -1005 -168 -3 -168 -2 4 1002 c3 975 4 1006 24 1099 47 211 135
414 253 577 33 46 60 85 60 87 0 8 -164 67 -225 80 -89 19 -260 19 -347 1
-275 -59 -527 -270 -659 -551 -49 -105 -87 -245 -99 -371 -5 -55 -10 -504 -10
-1011 l0 -913 -165 0 -166 0 4 1008 c3 995 3 1008 25 1103 46 203 114 364 223
529 81 122 245 287 362 365 251 165 563 232 851 184z m881 -629 c86 -146 145
-311 182 -503 16 -84 18 -177 18 -1072 l0 -980 -167 -3 -167 -2 -4 997 c-3
991 -3 999 -25 1080 -30 113 -75 228 -117 298 l-36 59 53 54 c49 49 189 152
208 152 4 0 29 -36 55 -80z m-370 -343 c18 -40 44 -108 57 -152 l23 -80 3
-992 3 -993 -121 0 -121 0 3 998 c3 984 3 998 25 1072 20 72 81 220 90 220 2
0 19 -33 38 -73z m-1707 -2868 c24 -12 46 -28 49 -36 4 -11 11 -9 32 11 81 77
226 55 278 -44 22 -41 23 -54 23 -242 l0 -199 -62 3 -63 3 -5 188 c-5 172 -7
190 -24 203 -21 15 -54 18 -72 6 -28 -19 -34 -56 -34 -227 l0 -176 -62 3 -63
3 -5 188 c-5 172 -7 190 -24 203 -28 20 -63 17 -86 -6 -19 -19 -20 -33 -20
-205 l0 -185 -65 0 -65 0 0 193 c0 209 8 245 62 295 50 45 137 54 206 21z
m3475 5 c64 -22 112 -77 126 -146 7 -30 10 -121 9 -208 l-3 -155 -62 -3 -63
-3 0 76 0 75 -100 0 -100 0 0 -75 0 -76 -62 3 -63 3 -3 155 c-3 190 7 248 55
300 58 65 168 88 266 54z m-2333 -168 c0 -160 2 -175 21 -200 17 -22 28 -26
69 -26 41 0 52 4 69 26 19 25 21 40 21 200 l0 174 65 0 65 0 0 -168 c0 -203
-11 -253 -69 -305 -98 -89 -292 -61 -347 50 -16 33 -19 65 -22 231 l-3 192 65
0 66 0 0 -174z m1271 141 c88 -43 129 -115 129 -226 0 -81 -19 -130 -70 -182
-60 -60 -110 -74 -265 -74 l-120 0 -3 258 -2 259 137 -4 c127 -3 143 -5 194
-31z m-2121 -917 c22 -44 40 -82 40 -85 0 -14 -31 -3 -40 15 -8 15 -21 20 -50
20 -29 0 -42 -5 -50 -20 -9 -18 -40 -29 -40 -15 0 15 82 165 90 165 5 0 28
-36 50 -80z m828 -2 c28 -55 38 -84 30 -87 -6 -2 -18 6 -26 18 -20 30 -98 31
-107 1 -6 -20 -35 -28 -35 -10 0 12 57 129 72 148 6 6 13 12 17 12 3 0 25 -37
49 -82z m407 70 c14 -6 25 -17 25 -25 0 -15 -26 -18 -35 -3 -10 15 -46 12 -67
-7 -38 -35 -3 -112 45 -97 46 14 47 44 1 44 -13 0 -24 5 -24 10 0 6 18 10 40
10 39 0 40 -1 40 -35 0 -40 -20 -55 -74 -55 -82 0 -105 116 -31 158 26 15 48
15 80 0z m-1741 -38 c14 -22 28 -40 30 -40 2 0 15 18 30 40 42 64 57 54 54
-37 -2 -50 -7 -78 -15 -81 -9 -2 -13 11 -13 45 l-1 48 -28 -34 -28 -34 -26 34
-27 34 0 -47 c0 -36 -4 -48 -15 -48 -12 0 -15 16 -15 80 0 94 12 103 54 40z
m871 -12 l40 -53 3 53 c2 38 7 52 18 52 12 0 14 -14 12 -77 -4 -97 -17 -103
-73 -30 l-40 52 -3 -53 c-5 -84 -26 -61 -30 31 -3 69 -1 77 15 77 11 0 36 -23
58 -52z m1295 42 c0 -5 -23 -10 -51 -10 -47 0 -50 -2 -47 -22 3 -20 10 -23 51
-26 63 -4 61 -22 -3 -22 -43 0 -50 -3 -50 -19 0 -17 8 -20 53 -23 75 -4 64
-22 -15 -26 l-68 -3 0 81 0 80 65 0 c37 0 65 -4 65 -10z m324 -30 c14 -22 28
-40 31 -40 2 0 14 18 26 40 36 64 49 53 49 -41 0 -60 -3 -80 -12 -77 -7 3 -14
22 -16 43 l-3 39 -25 -30 c-20 -24 -26 -26 -33 -14 -5 8 -17 24 -25 35 -14 19
-15 17 -16 -27 0 -36 -4 -48 -15 -48 -12 0 -15 16 -15 80 0 94 12 103 54 40z
m516 30 c0 -5 -22 -10 -50 -10 -47 0 -50 -2 -50 -25 0 -23 3 -25 50 -25 28 0
50 -4 50 -10 0 -5 -22 -10 -50 -10 -43 0 -50 -3 -50 -20 0 -17 7 -20 50 -20
38 0 50 -4 50 -15 0 -12 -14 -15 -65 -15 l-65 0 0 80 0 80 65 0 c37 0 65 -4
65 -10z m336 -41 l39 -50 3 50 c2 36 7 51 18 51 11 0 14 -17 14 -80 0 -98 -12
-103 -67 -29 l-38 50 -3 -50 c-2 -37 -7 -51 -18 -51 -11 0 -14 17 -14 80 0 97
11 102 66 29z m479 41 c-3 -5 -19 -10 -36 -10 l-29 0 0 -70 c0 -56 -3 -70 -15
-70 -12 0 -15 14 -15 70 l0 70 -30 0 c-16 0 -30 5 -30 10 0 6 34 10 81 10 51
0 78 -4 74 -10z"/>
<path d="M6674 3570 c-34 -13 -54 -50 -54 -97 l0 -43 100 0 100 0 0 30 c0 91
-68 142 -146 110z"/>
<path d="M5550 3435 l0 -135 55 0 c97 0 145 45 145 137 0 80 -62 133 -155 133
l-45 0 0 -135z"/>
<path d="M3566 2744 c-9 -23 -8 -24 14 -24 11 0 20 2 20 4 0 12 -13 36 -20 36
-4 0 -11 -7 -14 -16z"/>
<path d="M4392 2746 c-11 -24 -10 -26 13 -26 28 0 31 8 12 34 -12 17 -14 16
-25 -8z"/>
</g>
</svg>
